<svg xmlns="http://www.w3.org/2000/svg" viewBox="0 0 960 540" role="img" aria-labelledby="title desc">
  <title id="title">Constellation Planner preview</title>
  <desc id="desc">A dark strategy map where projects are stars connected by glowing routes.</desc>
  <defs>
    <linearGradient id="bg" x1="0" y1="0" x2="0" y2="1">
      <stop offset="0%" stop-color="#0b1023"/>
      <stop offset="100%" stop-color="#050711"/>
    </linearGradient>
    <linearGradient id="line" x1="0" y1="0" x2="1" y2="0">
      <stop offset="0%" stop-color="#7c8cff"/>
      <stop offset="100%" stop-color="#4dd0ff"/>
    </linearGradient>
  </defs>
  <rect width="960" height="540" fill="url(#bg)"/>
  <circle cx="104" cy="92" r="2" fill="#ffffff" opacity="0.7"/>
  <circle cx="190" cy="54" r="1.5" fill="#ffffff" opacity="0.5"/>
  <circle cx="844" cy="88" r="2" fill="#ffffff" opacity="0.7"/>
  <circle cx="712" cy="132" r="1.5" fill="#ffffff" opacity="0.4"/>
  <rect x="40" y="32" width="880" height="68" rx="22" fill="#0f1731" stroke="#24345f"/>
  <text x="72" y="73" font-family="Georgia, serif" font-size="28" fill="#eef2ff">Constellation Planner</text>
  <text x="72" y="90" font-family="Arial, sans-serif" font-size="13" fill="#b4c0ea">Local-first strategy mapping for ambitious projects</text>

  <rect x="40" y="126" width="560" height="318" rx="28" fill="#0f1731" stroke="#24345f"/>
  <line x1="214" y1="292" x2="390" y2="212" stroke="url(#line)" stroke-width="2" opacity="0.8"/>
  <line x1="390" y1="212" x2="510" y2="316" stroke="url(#line)" stroke-width="2" opacity="0.8"/>
  <line x1="300" y1="190" x2="214" y2="292" stroke="url(#line)" stroke-width="2" opacity="0.55"/>
  <circle cx="300" cy="190" r="16" fill="#7c8cff"/>
  <circle cx="214" cy="292" r="12" fill="#ffd166"/>
  <circle cx="390" cy="212" r="14" fill="#4dd0ff"/>
  <circle cx="510" cy="316" r="11" fill="#59d98e"/>
  <text x="324" y="194" font-family="Arial, sans-serif" font-size="15" fill="#eef2ff">Flagship product thesis</text>
  <text x="236" y="296" font-family="Arial, sans-serif" font-size="15" fill="#eef2ff">12 customer interviews</text>
  <text x="414" y="216" font-family="Arial, sans-serif" font-size="15" fill="#eef2ff">Public growth engine</text>
  <text x="534" y="320" font-family="Arial, sans-serif" font-size="15" fill="#eef2ff">Execution pipeline</text>

  <rect x="624" y="126" width="296" height="318" rx="28" fill="#0f1731" stroke="#24345f"/>
  <text x="650" y="164" font-family="Georgia, serif" font-size="24" fill="#eef2ff">Mission ledger</text>
  <rect x="650" y="184" width="244" height="74" rx="18" fill="#121d3d" stroke="#2b3d6c"/>
  <text x="668" y="210" font-family="Arial, sans-serif" font-size="16" fill="#eef2ff">Ship a public growth engine</text>
  <text x="668" y="232" font-family="Arial, sans-serif" font-size="13" fill="#ffd166">Priority 58.8</text>
  <text x="668" y="248" font-family="Arial, sans-serif" font-size="12" fill="#b4c0ea">Bet · Orbit · Impact 9 · Confidence 7</text>
  <rect x="650" y="272" width="244" height="74" rx="18" fill="#121d3d" stroke="#24345f"/>
  <text x="668" y="298" font-family="Arial, sans-serif" font-size="16" fill="#eef2ff">Define the flagship product thesis</text>
  <text x="668" y="320" font-family="Arial, sans-serif" font-size="13" fill="#ffd166">Priority 76.4</text>
  <text x="668" y="336" font-family="Arial, sans-serif" font-size="12" fill="#b4c0ea">Mission · Cluster · Impact 10 · Confidence 8</text>

  <rect x="40" y="466" width="880" height="42" rx="16" fill="#0f1731" stroke="#24345f"/>
  <text x="66" y="493" font-family="Arial, sans-serif" font-size="14" fill="#b4c0ea">Search, filter, inspect, rank, export, and flip between sky view and roadmap view.</text>
</svg>
